<svg id="Layer_1" data-name="Layer 1" xmlns="http://www.w3.org/2000/svg" viewBox="0 0 151.07 24.79"><title>handoff</title><path d="M40.66,23.79h4.56V14.2c0-2.19,1.3-3.72,3.32-3.72s3.23,1.39,3.23,3.73v9.58h4.56V13.28c0-4-2.25-6.58-5.87-6.58a5.14,5.14,0,0,0-5.14,3.23h-.1V1.24H40.66Zm23.11.27a5.44,5.44,0,0,0,4.94-2.77h.1v2.5h4.56V12.31c0-3.38-2.8-5.61-7.13-5.61S59.17,8.92,58.92,12l0,.19h4.17l0-.14c.22-1.08,1.25-1.88,3-1.88s2.75.92,2.75,2.41v1l-4.14.25c-4.16.26-6.52,2.05-6.52,5.09v0C58.15,22,60.42,24.06,63.77,24.06Zm-1.1-5.3v0c0-1.19.92-1.94,2.68-2.05l3.46-.22v1.21c0,1.75-1.5,3.06-3.55,3.06C63.68,20.73,62.67,20,62.67,18.76Zm13.17,5H80.4V14.17c0-2.19,1.3-3.69,3.35-3.69s3.08,1.25,3.08,3.44v9.87h4.56V13c0-3.92-2.1-6.28-5.78-6.28A5.2,5.2,0,0,0,80.5,9.79h-.1V7H75.84Zm24.16.34a5.38,5.38,0,0,0,5.16-3.2h.09v2.86h4.56V1.24h-4.56V10h-.09A5.42,5.42,0,0,0,100,6.7c-4.22,0-6.81,3.25-6.81,8.7v0C93.19,20.85,95.78,24.13,100,24.13Zm1.53-3.78c-2.28,0-3.7-1.89-3.7-4.93v0c0-3.06,1.44-4.92,3.7-4.92s3.74,1.9,3.74,4.92v0C105.27,18.45,103.75,20.35,101.53,20.35Zm18.54,3.78c5.06,0,8.3-3.25,8.3-8.71v0c0-5.42-3.3-8.68-8.32-8.68s-8.28,3.29-8.28,8.68v0C111.77,20.87,115,24.13,120.07,24.13Zm0-3.57c-2.25,0-3.67-1.86-3.67-5.14v0c0-3.23,1.44-5.1,3.64-5.1s3.68,1.87,3.68,5.1v0C123.73,18.68,122.3,20.56,120.08,20.56Zm11.38,3.23H136V10.48h3.22V7h-3.33V5.87c0-1.2.67-1.84,2.18-1.84a7,7,0,0,1,1.18.07v-3A13,13,0,0,0,137,.9c-3.95,0-5.52,1.52-5.52,4.8V7h-2.28v3.44h2.28Zm10.93,0H147V10.48h3.22V7h-3.33V5.87c0-1.2.68-1.84,2.19-1.84a6.87,6.87,0,0,1,1.17.07v-3A12.91,12.91,0,0,0,147.91.9c-4,0-5.52,1.52-5.52,4.8V7h-2.28v3.44h2.28Z"/><path d="M20.59,1.12,31.82,12.69,20.59,24.26V18.53l-5.08-1.64V8.49l5.08-1.64Z"/><path d="M12.84,9.31v6.76L2.38,12.69Z"/></svg>